<?xml version="1.0" encoding="utf-8"?>
<!-- Generator: Adobe Illustrator 25.4.1, SVG Export Plug-In . SVG Version: 6.00 Build 0)  -->
<svg version="1.1" id="Lag_1" xmlns="http://www.w3.org/2000/svg" xmlns:xlink="http://www.w3.org/1999/xlink" x="0px" y="0px"
	 viewBox="0 0 300 300" style="enable-background:new 0 0 300 300;" xml:space="preserve">
<style type="text/css">
	.st0{fill:#7D8D67;}
	.st1{fill:#F6F2EF;}
</style>
<g>
	<g>
		<circle class="st0" cx="150.62" cy="144.82" r="26.18"/>
		<g id="kk1t5U_00000093173545326511821250000003192169429460970405_">
			<g>
				<g>
					<path class="st1" d="M166.76,136.66c-0.29-2.78-1.51-5.08-3.9-6.64c-1.67-1.09-3.56-1.49-5.52-1.52
						c-3.68-0.06-7.36-0.08-11.04-0.08c-1.21,0-2.42,0.06-3.63,0.17c-1.9,0.18-3.66,0.79-5.15,2.04c-2.17,1.82-3.09,4.24-3.16,6.97
						c-0.11,4.3-0.08,8.6-0.09,12.9c0,0.77,0.06,1.54,0.15,2.3c0.24,2.06,0.93,3.93,2.38,5.46c1.79,1.88,4.05,2.65,6.56,2.78
						c2.4,0.12,4.81,0.13,7.19,0.19c2.43-0.06,4.82-0.07,7.21-0.18c2.52-0.11,4.81-0.87,6.62-2.76c1.71-1.79,2.4-3.99,2.47-6.38
						c0.1-3.57,0.11-7.15,0.11-10.72C166.97,139.67,166.92,138.16,166.76,136.66z M163.93,151.38c-0.01,0.77-0.12,1.57-0.32,2.32
						c-0.63,2.43-2.25,3.89-4.7,4.22c-1.88,0.25-3.8,0.23-5.7,0.3c-0.89,0.03-1.77,0.01-2.66,0.01c0,0.01,0,0.03,0,0.04
						c-2.22-0.05-4.43-0.07-6.65-0.15c-0.75-0.03-1.51-0.14-2.23-0.32c-2.46-0.63-3.84-2.3-4.22-4.76c-0.2-1.28-0.26-2.59-0.26-3.89
						c-0.01-3.64,0.02-7.27,0.08-10.9c0.01-0.76,0.11-1.54,0.3-2.28c0.62-2.51,2.29-3.94,4.81-4.33c1.24-0.19,2.5-0.25,3.75-0.25
						c3.63-0.01,7.27,0.02,10.9,0.07c0.78,0.01,1.57,0.11,2.32,0.29c2.52,0.6,3.97,2.25,4.38,4.76c0.18,1.12,0.25,2.26,0.25,3.4
						C164.01,143.72,163.99,147.55,163.93,151.38z"/>
					<path class="st1" d="M150.6,136.37c-4.63-0.01-8.38,3.73-8.41,8.39c-0.03,4.64,3.74,8.42,8.41,8.43
						c4.6,0.01,8.38-3.74,8.41-8.35C159.04,140.16,155.29,136.38,150.6,136.37z M150.59,150.24c-2.98,0-5.44-2.43-5.44-5.39
						c0-3.09,2.42-5.53,5.5-5.53c2.97,0,5.41,2.46,5.41,5.43C156.06,147.83,153.66,150.23,150.59,150.24z"/>
					<path class="st1" d="M161.31,136.03c0.01,1.08-0.85,1.96-1.91,1.97c-1.1,0.01-1.99-0.85-2.01-1.93
						c-0.01-1.09,0.86-1.98,1.95-1.99C160.43,134.06,161.3,134.92,161.31,136.03z"/>
				</g>
			</g>
		</g>
	</g>
	<circle class="st0" cx="78.43" cy="144.71" r="26.18"/>
	<circle class="st0" cx="220.81" cy="144.71" r="26.18"/>
	<path class="st1" d="M90.1,146.14c-0.02,0.2-0.04,0.37-0.06,0.55c-0.09,0.72-0.19,1.44-0.28,2.16c-0.09,0.73-0.19,1.46-0.29,2.19
		c-0.08,0.62-0.17,1.24-0.24,1.86c-0.01,0.12-0.06,0.15-0.17,0.15c-1.88,0-3.75,0-5.63,0c-0.2,0-0.2,0-0.2,0.2
		c0,5.83,0,11.66,0,17.49c0,0.26,0.03,0.22-0.23,0.22c-2.26,0-4.53,0-6.79,0c-0.17,0-0.17,0-0.17-0.17c0-5.84,0-11.67,0-17.51
		c0-0.05,0.01-0.1,0-0.14c-0.01-0.04-0.05-0.07-0.09-0.09c-0.04-0.01-0.08,0-0.13,0c-1.88,0-3.75,0-5.63,0c-0.18,0-0.18,0-0.18-0.18
		c0-2.18,0-4.37,0-6.55c0-0.18,0-0.18,0.18-0.18c1.89,0,3.78,0,5.67,0c0.18,0,0.18,0,0.18-0.18c0-1.53,0-3.07,0-4.6
		c0-0.98,0.05-1.95,0.25-2.91c0.27-1.32,0.77-2.54,1.61-3.6c0.98-1.25,2.25-2.07,3.74-2.56c1.24-0.41,2.53-0.52,3.83-0.49
		c0.65,0.02,1.3,0.01,1.95,0.04c0.93,0.05,1.86,0.13,2.79,0.19c0.13,0.01,0.14,0.07,0.14,0.17c0,1.81,0,3.61,0,5.42
		c0,0.17-0.01,0.33,0,0.5c0.01,0.12-0.04,0.14-0.15,0.14c-1.06,0-2.11,0-3.17,0c-0.57,0-1.15,0-1.71,0.13
		c-0.65,0.15-1.23,0.43-1.61,1.02c-0.27,0.42-0.42,0.89-0.44,1.38c-0.04,0.93-0.04,1.87-0.05,2.81c-0.01,0.79,0,1.58,0,2.38
		c0,0.17,0,0.17,0.17,0.17c2.17,0,4.33,0,6.5,0C89.95,146.14,90.01,146.14,90.1,146.14z"/>
	<g id="tHy1Gc_00000160171065977721839680000012814365887980140170_">
		<g>
			<g>
				<path class="st1" d="M233.64,136.01v4.69c-3.01,0-5.74-0.43-8-2.46c-0.08,0.03-0.16,0.07-0.24,0.1c0,1.68,0.02,3.37,0,5.05
					c-0.06,3.11-0.16,6.22-0.21,9.33c-0.09,5.09-4.29,9.2-9.39,9.17c-5.15-0.04-9.31-4.23-9.28-9.35c0.03-5.49,4.68-9.75,10.16-9.3
					c0.15,0.01,0.29,0.06,0.52,0.1c-0.08,1.52-0.17,3.03-0.25,4.61c-0.37,0-0.7,0-1.02,0c-2.44-0.02-4.47,1.81-4.65,4.16
					c-0.19,2.51,1.53,4.62,4.05,4.98c2.28,0.33,4.64-1.25,4.99-3.61c0.27-1.79,0.2-3.64,0.25-5.47c0.16-6.3,0.31-12.6,0.47-18.9
					c0-0.08,0.02-0.15,0.05-0.35c2.05,0.1,4.11,0.21,6.27,0.32c-0.22,1.95-0.33,3.82,1.14,5.35
					C229.94,135.93,231.83,135.85,233.64,136.01z"/>
			</g>
		</g>
	</g>
</g>
</svg>
